<?xml version="1.0" encoding="utf-8"?>
<!-- Generator: Adobe Illustrator 26.0.1, SVG Export Plug-In . SVG Version: 6.00 Build 0)  -->
<svg version="1.1" id="Layer_1" xmlns="http://www.w3.org/2000/svg" xmlns:xlink="http://www.w3.org/1999/xlink" x="0px" y="0px"
	 viewBox="0 0 400 400" style="enable-background:new 0 0 400 400;" xml:space="preserve">
<style type="text/css">
	.st0{display:none;fill:#FFFFFF;}
	.st1{fill:#333333;}
</style>
<g>
	<path class="st0" d="M-65-65v530h530V-65H-65z M366.6,220.1c-11.7,20.5-28.2,36-48.9,47.2c-10.1,5.4-20.5,9.9-31,14.7
		c-17.4,8.1-34.8,16-52.2,24c-1.1,0.5-2,1.2-3.3,2c2.3,3.4,4.4,6.5,6.5,9.7c3.6,5.3,7.2,10.5,10.7,15.8c9.4,14.2,5.4,35-12.2,42.5
		c-12.6,5.4-24.6,4-35.9-3.7c-5.4-3.7-8.6-9-12.1-14.3c-13.4-20.1-26.8-40.3-40.1-60.4c-2.9-4.4-5.8-8.9-8.7-13.2
		c-1.2-1.7-0.9-2.7,1.1-3.6c16.3-7.3,32.5-14.6,48.6-21.9c16.2-7.3,32.3-14.4,48.5-21.7c14.8-6.6,29.8-12.9,44.3-20.1
		c16.4-8.2,28.1-21.2,33.7-39c7.2-23.2,1.5-44-13.1-62.5c-10.7-13.6-24.8-22.8-41.3-28.4c-17.6-6-35.6-7.2-53.5-2.1
		c-8.6,2.4-16.7,6.1-24.9,9.5c-22.5,9.4-45.1,18.8-67.6,28.4c-6.2,2.7-12.7,4.8-18.7,7.8c-7.4,4-12.3,10.2-12.1,19.1
		c0.3,9.1,5.3,15.4,13.1,19.5c9.3,4.9,18.5,4,28.1-0.1c21.5-9.3,43.1-18.4,64.5-27.6c6.6-2.8,13-6,19.7-8.3
		c15.6-5.8,36.2,1.2,43.2,18c5.2,12.5-1.5,27.6-14.3,32.9c-11.7,4.9-23.2,9.9-34.7,15.1c-14.7,6.5-29.3,13.1-44,19.3
		c-7.4,3.2-15.1,6.1-22.8,8.2c-13.9,4-28.1,3.8-42.3,1.5c-19.7-3.4-37.2-11.8-51.4-25.8c-16.3-16.2-25.2-35.8-23.2-59.4
		c1.3-16.4,8.2-30.5,19.5-42.4c9.9-10.5,22.1-17.2,35.4-22.4C89,72.8,102.7,67,116.7,61.4c15.6-6.4,31.3-12.5,46.8-18.9
		c13.6-5.7,27.7-9.7,42.4-11.4c14-1.7,28.2-2,42.1,0.5c10.3,1.9,20.7,3.8,30.6,6.9c22.5,7,42.4,18.8,59.8,35
		c11.1,10.3,20.4,22.3,27.7,35.5c9.8,17.9,15,37.2,14.8,57.6C380.7,185.6,376,203.6,366.6,220.1z"/>
	<path class="st1" d="M380.9,166.6c-0.1,19.1-4.9,37-14.3,53.7c-11.7,20.5-28.2,36-48.9,47.2c-10.1,5.4-20.5,9.9-31,14.7
		c-17.4,8.1-34.8,16-52.2,24c-1.1,0.5-2,1.2-3.3,2c2.3,3.4,4.4,6.5,6.5,9.7c3.6,5.3,7.2,10.5,10.7,15.8c9.4,14.2,5.4,35-12.2,42.5
		c-12.6,5.4-24.6,4-35.9-3.7c-5.4-3.7-8.6-9-12.1-14.3c-13.4-20.1-26.8-40.3-40.1-60.4c-2.9-4.4-5.8-8.9-8.7-13.2
		c-1.2-1.7-0.9-2.7,1.1-3.6c16.3-7.3,32.5-14.6,48.6-21.9c16.2-7.3,32.3-14.4,48.5-21.7c14.8-6.6,29.8-12.9,44.3-20.1
		c16.4-8.2,28.1-21.2,33.7-39c7.2-23.2,1.5-44-13.1-62.5C291.6,102,277.5,92.8,261,87.2c-17.6-6-35.6-7.2-53.5-2.1
		c-8.6,2.4-16.7,6.1-24.9,9.5c-22.5,9.4-45.1,18.8-67.6,28.4c-6.2,2.7-12.7,4.8-18.7,7.8c-7.4,4-12.3,10.2-12.1,19.1
		c0.3,9.1,5.3,15.4,13.1,19.5c9.3,4.9,18.5,4,28.1-0.1c21.5-9.3,43.1-18.4,64.5-27.6c6.6-2.8,13-6,19.7-8.3
		c15.6-5.8,36.2,1.2,43.2,18c5.2,12.5-1.5,27.6-14.3,32.9c-11.7,4.9-23.2,9.9-34.7,15.1c-14.7,6.5-29.3,13.1-44,19.3
		c-7.4,3.2-15.1,6.1-22.8,8.2c-13.9,4-28.1,3.8-42.3,1.5c-19.7-3.4-37.2-11.8-51.4-25.8c-16.3-16.2-25.2-35.8-23.2-59.4
		c1.3-16.4,8.2-30.5,19.5-42.4c9.9-10.5,22.1-17.2,35.4-22.4c13.9-5.4,27.7-11.3,41.6-16.8c15.6-6.4,31.3-12.5,46.8-18.9
		c13.6-5.7,27.7-9.7,42.4-11.4c14-1.7,28.2-2,42.1,0.5c10.3,1.9,20.7,3.8,30.6,6.9c22.5,7,42.4,18.8,59.8,35
		c11.1,10.3,20.4,22.3,27.7,35.5C375.8,126.9,381,146.1,380.9,166.6z"/>
</g>
</svg>
