<?xml version="1.0" encoding="utf-8"?>
<!-- Generator: Adobe Illustrator 26.0.1, SVG Export Plug-In . SVG Version: 6.00 Build 0)  -->
<svg version="1.0" id="Layer_1" xmlns="http://www.w3.org/2000/svg" xmlns:xlink="http://www.w3.org/1999/xlink" x="0px" y="0px"
	 viewBox="0 0 400 400" enable-background="new 0 0 400 400" xml:space="preserve">
<g>
	<path display="none" fill="#FFFFFF" d="M0,0v400h400V0H0z M325.7,215.2c-8.8,15.5-21.3,27.2-36.9,35.6c-7.6,4.1-15.5,7.5-23.4,11.1
		c-13.1,6.1-26.3,12.1-39.4,18.1c-0.8,0.4-1.5,0.9-2.5,1.5c1.7,2.6,3.3,4.9,4.9,7.3c2.7,4,5.4,7.9,8.1,11.9
		c7.1,10.7,4.1,26.4-9.2,32.1c-9.5,4.1-18.6,3-27.1-2.8c-4.1-2.8-6.5-6.8-9.1-10.8c-10.1-15.2-20.2-30.4-30.3-45.6
		c-2.2-3.3-4.4-6.7-6.6-10c-0.9-1.3-0.7-2,0.8-2.7c12.3-5.5,24.5-11,36.7-16.5c12.2-5.5,24.4-10.9,36.6-16.4
		c11.2-5,22.5-9.7,33.4-15.2c12.4-6.2,21.2-16,25.4-29.4c5.4-17.5,1.1-33.2-9.9-47.2c-8.1-10.3-18.7-17.2-31.2-21.4
		c-13.3-4.5-26.9-5.4-40.4-1.6c-6.5,1.8-12.6,4.6-18.8,7.2c-17,7.1-34,14.2-51,21.4c-4.7,2-9.6,3.6-14.1,5.9
		c-5.6,3-9.3,7.7-9.1,14.4c0.2,6.9,4,11.6,9.9,14.7c7,3.7,14,3,21.2-0.1c16.2-7,32.5-13.9,48.7-20.8c5-2.1,9.8-4.5,14.9-6.3
		c11.8-4.4,27.3,0.9,32.6,13.6c3.9,9.4-1.1,20.8-10.8,24.8c-8.8,3.7-17.5,7.5-26.2,11.4c-11.1,4.9-22.1,9.9-33.2,14.6
		c-5.6,2.4-11.4,4.6-17.2,6.2c-10.5,3-21.2,2.9-31.9,1.1c-14.9-2.6-28.1-8.9-38.8-19.5c-12.3-12.2-19-27-17.5-44.8
		c1-12.4,6.2-23,14.7-32c7.5-7.9,16.7-13,26.7-16.9c10.5-4.1,20.9-8.5,31.4-12.7c11.8-4.8,23.6-9.4,35.3-14.3
		c10.3-4.3,20.9-7.3,32-8.6c10.6-1.3,21.3-1.5,31.8,0.4c7.8,1.4,15.6,2.9,23.1,5.2c17,5.3,32,14.2,45.1,26.4
		c8.4,7.8,15.4,16.8,20.9,26.8c7.4,13.5,11.3,28.1,11.2,43.5C336.4,189.1,332.8,202.7,325.7,215.2z"/>
	<path fill="#333333" d="M336.5,174.8c-0.1,14.4-3.7,27.9-10.8,40.5c-8.8,15.5-21.3,27.2-36.9,35.6c-7.6,4.1-15.5,7.5-23.4,11.1
		c-13.1,6.1-26.3,12.1-39.4,18.1c-0.8,0.4-1.5,0.9-2.5,1.5c1.7,2.6,3.3,4.9,4.9,7.3c2.7,4,5.4,7.9,8.1,11.9
		c7.1,10.7,4.1,26.4-9.2,32.1c-9.5,4.1-18.6,3-27.1-2.8c-4.1-2.8-6.5-6.8-9.1-10.8c-10.1-15.2-20.2-30.4-30.3-45.6
		c-2.2-3.3-4.4-6.7-6.6-10c-0.9-1.3-0.7-2,0.8-2.7c12.3-5.5,24.5-11,36.7-16.5c12.2-5.5,24.4-10.9,36.6-16.4
		c11.2-5,22.5-9.7,33.4-15.2c12.4-6.2,21.2-16,25.4-29.4c5.4-17.5,1.1-33.2-9.9-47.2c-8.1-10.3-18.7-17.2-31.2-21.4
		c-13.3-4.5-26.9-5.4-40.4-1.6c-6.5,1.8-12.6,4.6-18.8,7.2c-17,7.1-34,14.2-51,21.4c-4.7,2-9.6,3.6-14.1,5.9
		c-5.6,3-9.3,7.7-9.1,14.4c0.2,6.9,4,11.6,9.9,14.7c7,3.7,14,3,21.2-0.1c16.2-7,32.5-13.9,48.7-20.8c5-2.1,9.8-4.5,14.9-6.3
		c11.8-4.4,27.3,0.9,32.6,13.6c3.9,9.4-1.1,20.8-10.8,24.8c-8.8,3.7-17.5,7.5-26.2,11.4c-11.1,4.9-22.1,9.9-33.2,14.6
		c-5.6,2.4-11.4,4.6-17.2,6.2c-10.5,3-21.2,2.9-31.9,1.1c-14.9-2.6-28.1-8.9-38.8-19.5c-12.3-12.2-19-27-17.5-44.8
		c1-12.4,6.2-23,14.7-32c7.5-7.9,16.7-13,26.7-16.9c10.5-4.1,20.9-8.5,31.4-12.7c11.8-4.8,23.6-9.4,35.3-14.3
		c10.3-4.3,20.9-7.3,32-8.6c10.6-1.3,21.3-1.5,31.8,0.4c7.8,1.4,15.6,2.9,23.1,5.2c17,5.3,32,14.2,45.1,26.4
		c8.4,7.8,15.4,16.8,20.9,26.8C332.7,144.8,336.6,159.3,336.5,174.8z"/>
</g>
<g>
</g>
<g>
</g>
<g>
</g>
<g>
</g>
<g>
</g>
</svg>
