<?xml version="1.0" encoding="utf-8"?>
<!-- Generator: Adobe Illustrator 26.0.1, SVG Export Plug-In . SVG Version: 6.00 Build 0)  -->
<svg version="1.1" id="Layer_1" xmlns="http://www.w3.org/2000/svg" xmlns:xlink="http://www.w3.org/1999/xlink" x="0px" y="0px"
	 viewBox="0 0 24 24" style="enable-background:new 0 0 24 24;" xml:space="preserve">
<style type="text/css">
	.st0{display:none;}
	.st1{fill:#333333;}
</style>
<path class="st0" d="M19,3H5C3.9,3,3,3.9,3,5v14c0,1.1,0.9,2,2,2h14c1.1,0,2-0.9,2-2V5C21,3.9,20.1,3,19,3z M17.4,17
	C17.3,17,17.3,17,17.4,17L15,17c-0.2,0-0.4-0.1-0.5-0.3L12.1,11c0-0.1-0.1-0.1-0.1-0.1c0,0-0.1,0-0.1,0.1l-1.5,3.6
	c0,0.1,0,0.1,0.1,0.2c0,0,0,0,0,0h1.7c0.1,0,0.2,0.1,0.2,0.2l0.7,1.6c0.1,0.1,0,0.3-0.2,0.4c-0.1,0-0.1,0-0.1,0H6.7
	c-0.1,0-0.3-0.1-0.3-0.3c0,0,0-0.1,0-0.1l3.9-9.3C10.5,7.1,10.7,7,10.9,7h2.2c0.2,0,0.4,0.1,0.5,0.3l3.9,9.3
	C17.6,16.8,17.5,16.9,17.4,17z"/>
<path class="st1" d="M23.6,22.8c-0.1,0-0.2,0-0.2,0h-4.9c-0.4,0-0.8-0.3-1-0.6L12.2,9.8c0-0.1-0.2-0.2-0.3-0.2
	c-0.1,0-0.1,0.1-0.2,0.2l-3.3,7.9c-0.1,0.2,0,0.3,0.2,0.4c0,0,0.1,0,0.1,0h3.6c0.2,0,0.4,0.1,0.5,0.3l1.6,3.5c0.2,0.3,0,0.7-0.3,0.9
	c-0.1,0-0.2,0-0.3,0H0.6c-0.3,0-0.6-0.3-0.6-0.6c0-0.1,0-0.2,0-0.2L8.5,1.9c0.2-0.4,0.6-0.7,1.1-0.7h4.9c0.5,0,0.9,0.3,1.1,0.7
	L23.9,22C24.1,22.3,24,22.6,23.6,22.8z"/>
</svg>
