<?xml version="1.0" encoding="utf-8"?>
<!-- Generator: Adobe Illustrator 26.0.1, SVG Export Plug-In . SVG Version: 6.00 Build 0)  -->
<svg version="1.1" id="Ebene_1" xmlns="http://www.w3.org/2000/svg" xmlns:xlink="http://www.w3.org/1999/xlink" x="0px" y="0px"
	 viewBox="0 0 841.891 595.281" enable-background="new 0 0 841.891 595.281" xml:space="preserve">
<g>
	<path fill="#333333" d="M546.086,17.351h187.89L482.862,481.192c0,0-42.308-122.883-60.491-166.735"/>
	<g>
		<path fill="#333333" d="M592.434,590.884h141.541V17.351C733.856,317.071,607.884,590.884,592.434,590.884z"/>
	</g>
	<path fill="#333333" d="M482.862,481.192H366.04L108.034,17.351C153.788,11.528,245.177,3.684,290.456,0L482.862,481.192z"/>
	<path fill="#333333" d="M257.656,298.056C218.913,451.125,107.915,595.399,108.034,595.28c128.587,0,156.277-18.658,156.277-28.521
		c0-5.467,0-176.243,0-257.056C262.052,305.9,259.914,301.978,257.656,298.056z"/>
	<path fill="#333333" d="M108.034,17.351V595.28c70.354-116.228,111.354-192.286,147.602-300.67
		C166.266,136.55,108.034,17.351,108.034,17.351z"/>
	<polyline fill="#333333" points="582.689,568.184 592.434,590.884 592.434,289.737 582.689,306.018 	"/>
	<path fill="#333333" d="M591.959,290.332v299.601l0.356,0.951c10.102,0,141.541-324.202,141.541-573.532
		C733.856,17.351,653.638,184.68,591.959,290.332z"/>
</g>
</svg>
