<?xml version="1.0" encoding="utf-8"?>
<!-- Generator: Adobe Illustrator 26.0.1, SVG Export Plug-In . SVG Version: 6.00 Build 0)  -->
<svg version="1.1" id="Layer_1" xmlns="http://www.w3.org/2000/svg" xmlns:xlink="http://www.w3.org/1999/xlink" x="0px" y="0px"
	 viewBox="0 0 2201 2475.4" style="enable-background:new 0 0 2201 2475.4;" xml:space="preserve">
<style type="text/css">
	.st0{fill:#333333;}
</style>
<path class="st0" d="M2173.9,617.1c-17.6-31.2-44.1-57-79.3-77.3C1801.7,371,1508.1,202.1,1215.2,33.3
	c-79.3-45.4-155.3-44.1-233.9,2C864.5,103.8,280,438.8,106.5,539.8C34.6,581.2,0,644.9,0,727.7v1019.8c0,40.2,8.6,75.8,25.2,106.7
	c0.2,0.4,0.4,0.8,0.6,1.1c17.6,31.9,44.8,59,80.7,80c174.3,101,758.1,435.3,874.7,504.5c6,3.5,11.9,6.7,17.8,9.7
	c72.4,36.4,143.4,34.9,216.1-7.7c292.9-169.5,586.5-337.7,879.4-506.5c36.6-21,63.1-47.5,80.7-80c17-31.2,25.8-67.1,25.8-107.8V727
	C2201,685.6,2192.2,648.3,2173.9,617.1z M1907.4,1123v-59h72.5v59h59v72.6h-59v87.5h59v72.6h-59v59h-72.5v-59h-88.2v59h-72.6v-59
	h-58.3v-72.6h58.3v-87.5h-58.3V1123h58.3v-59h72.6v59H1907.4z M465.2,1601C465.2,1601,465.2,1600.9,465.2,1601
	c-61.8-107.2-97-231.9-97-364.1C368.2,833.5,695,506,1099.1,506c270.5,0,506.4,147.1,633.2,365.4l-318,183.1
	c-63.1-108.4-180.3-181.6-314.5-181.6c-201.4,0-364.1,162.7-364.1,364.1c0,65.8,17.6,126.8,48.1,180.4l0,0v0.1l0,0
	c0.2,0.4,0.5,0.8,0.7,1.2c56.4,98.4,157.5,167.7,275.9,180.4c2.8,0.3,5.7,0.6,8.6,0.8h0.1c2,0.2,3.9,0.3,5.9,0.4l0,0
	c2,0.1,3.9,0.2,5.9,0.3c6.3,0.3,12.6,0.5,19,0.5s12.7-0.2,19-0.5c2-0.1,4-0.2,6-0.4c1-0.1,2-0.1,2.9-0.2
	c124.3-9.4,231.1-81.1,289.2-184.4l317.7,184.3c-126.2,219.9-363.3,368-634.8,368C828.6,1967.8,591.3,1820,465.2,1601z M1819.2,1283
	h88.2v-87.5h-88.2V1283z"/>
</svg>
