<?xml version="1.0" encoding="utf-8"?>
<!-- Generator: Adobe Illustrator 26.0.1, SVG Export Plug-In . SVG Version: 6.00 Build 0)  -->
<svg version="1.1" id="Layer_1" xmlns="http://www.w3.org/2000/svg" xmlns:xlink="http://www.w3.org/1999/xlink" x="0px" y="0px"
	 viewBox="0 0 231.7 240.7" style="enable-background:new 0 0 231.7 240.7;" xml:space="preserve">
<style type="text/css">
	.st0{clip-path:url(#SVGID_00000169546935044227320380000008710618118689694377_);}
	.st1{clip-path:url(#SVGID_00000002366694541044629110000012252901323423374475_);fill:#2E2E2C;}
	.st2{clip-path:url(#SVGID_00000088834510219072547780000001831780405199103673_);}
	.st3{clip-path:url(#SVGID_00000010304858510160102960000018249408483072998280_);fill:#2E2E2C;}
	.st4{clip-path:url(#SVGID_00000063596895355216190000000008650008500758918307_);}
	.st5{clip-path:url(#SVGID_00000119835189436698875160000006800289733414225562_);fill:#2E2E2C;}
	.st6{clip-path:url(#SVGID_00000010297876976250609440000003135854739191701892_);}
	.st7{clip-path:url(#SVGID_00000109727506169192207870000011447673475349089430_);fill:#2E2E2C;}
	.st8{clip-path:url(#SVGID_00000147196539932525968420000015552294501783183030_);}
	.st9{clip-path:url(#SVGID_00000026130214936451755680000004440259026138598537_);fill:#2E2E2C;}
	.st10{clip-path:url(#SVGID_00000027589089631998829410000014816240112890039171_);}
	.st11{clip-path:url(#SVGID_00000132065453974192164270000008296684667627457712_);enable-background:new    ;}
	.st12{clip-path:url(#SVGID_00000058566395535231146490000010393053046611481518_);}
	.st13{clip-path:url(#SVGID_00000081624875338450782440000014706034429457553797_);}
	.st14{clip-path:url(#SVGID_00000124127633678687877940000000792558393970658451_);fill:#2E2E2C;}
	.st15{clip-path:url(#SVGID_00000113353663344748137560000014594724336858647983_);}
	.st16{clip-path:url(#SVGID_00000101793155431233740090000002364033564644066452_);}
	.st17{clip-path:url(#SVGID_00000138539710542928475100000002307327048561511322_);fill:#2E2E2C;}
	.st18{clip-path:url(#SVGID_00000068649457857839272950000013338572097020972689_);}
	.st19{clip-path:url(#SVGID_00000016785899720826419510000016251253132998450309_);fill:#2E2E2C;}
	.st20{clip-path:url(#SVGID_00000124865414960338800390000017856148114879107722_);}
	.st21{clip-path:url(#SVGID_00000163781654238257006190000007940758094694006436_);fill:#2E2E2C;}
	.st22{clip-path:url(#SVGID_00000040566099822538873060000003781573060387202946_);}
	.st23{clip-path:url(#SVGID_00000121994011573261450740000014855629276784161726_);fill:#2E2E2C;}
	.st24{clip-path:url(#SVGID_00000115490126886142675990000012327535941209402535_);}
	.st25{clip-path:url(#SVGID_00000000224541476100062850000016719642723216493732_);fill:#2E2E2C;}
	.st26{clip-path:url(#SVGID_00000163773189802288505920000014001227692998028471_);}
	.st27{clip-path:url(#SVGID_00000032630603521561247550000016215035704625599402_);fill:#2E2E2C;}
	.st28{clip-path:url(#SVGID_00000059297798781436887120000018181121908855335583_);}
	.st29{clip-path:url(#SVGID_00000176722835218543044610000016077544137233120423_);fill:#2E2E2C;}
	.st30{clip-path:url(#SVGID_00000049942792608530443240000012594122715135875994_);}
	.st31{clip-path:url(#SVGID_00000109004102215932314780000002548554475513161378_);fill:#2E2E2C;}
</style>
<g>
	<g>
		<g>
			<defs>
				<path id="SVGID_1_" d="M152,110.2c-3,0-4.2-1.8-4.2-1.8c-0.2-0.8-0.4-12.7-0.5-24.5c-0.1-12.3,0-24.5,0.6-24.6
					c3.5-6.5,14.5-19.6,14.5-19.6c-20.6,4.1-31.8,17.6-31.8,17.6c-3.3-2.6-10.1-2.2-10.1-2.2c3.2,1.7,6.3,6.8,6.3,11v41.4
					c0,0-6.9,6.1-12.2,6.1c-3.2,0-5.1-1.7-6.2-3.1c-0.7-1-1-1.8-1-1.8V57.6c-0.7,0.5-1.6,0.9-2.5,0.9c-1.1,0-2.3-0.6-3.1-2.2
					c-0.6-1.3-1-3.1-1-5.9c0-9.4,10.7-15.7,10.7-15.7C98,38.3,85.4,45.3,68.7,64.5s-13.5,35-13.5,35s4.5-11,15.6-22.5
					c5.3-5.4,9.2-7.2,11.9-7.3c3,0,4.4,2.2,4.4,4.2v38.9c0,3.8-2.5,4.7-4.8,4.6c-1.9,0-3.7-0.7-3.7-0.7
					c11.4,16.5,38.6,18.9,38.6,18.9l12-12.8l0.3,0.2l11,9.3c20-11.9,29.7-34,29.7-34C161.1,108,155.4,110.2,152,110.2"/>
			</defs>
			<clipPath id="SVGID_00000015344693009818837270000010180689871925958533_">
				<use xlink:href="#SVGID_1_"  style="overflow:visible;"/>
			</clipPath>
			<g style="clip-path:url(#SVGID_00000015344693009818837270000010180689871925958533_);">
				<g>
					<defs>
						<rect id="SVGID_00000118355530442846956250000015959981627722508479_" x="-46.8" y="-94.5" width="705.6" height="470.4"/>
					</defs>
					<clipPath id="SVGID_00000117654888364184278800000016472886722196984962_">
						<use xlink:href="#SVGID_00000118355530442846956250000015959981627722508479_"  style="overflow:visible;"/>
					</clipPath>
					
						<rect x="53.7" y="33.5" style="clip-path:url(#SVGID_00000117654888364184278800000016472886722196984962_);fill:#2E2E2C;" width="117.6" height="103.4"/>
				</g>
			</g>
		</g>
	</g>
	<g>
		<g>
			<defs>
				<path id="SVGID_00000029041120312660604610000007078687518343749785_" d="M115.6,5.2c21.2,0,41.2,8.3,56.2,23.5
					c15,15.1,23.3,35.3,23.3,56.7s-8.3,41.5-23.3,56.7c-15,15.1-35,23.5-56.2,23.5s-41.2-8.3-56.2-23.5
					c-15-15.1-23.3-35.3-23.3-56.7s8.3-41.5,23.3-56.7S94.3,5.2,115.6,5.2 M115.6,1.5c-46,0-83.2,37.5-83.2,83.8
					s37.2,83.8,83.1,83.8s83.1-37.5,83.1-83.8C198.7,39,161.5,1.5,115.6,1.5"/>
			</defs>
			<clipPath id="SVGID_00000111174647789577609720000016346285939865743489_">
				<use xlink:href="#SVGID_00000029041120312660604610000007078687518343749785_"  style="overflow:visible;"/>
			</clipPath>
			<g style="clip-path:url(#SVGID_00000111174647789577609720000016346285939865743489_);">
				<g>
					<defs>
						<rect id="SVGID_00000026875860798505905540000005442417380250780328_" x="-46.8" y="-94.5" width="705.6" height="470.4"/>
					</defs>
					<clipPath id="SVGID_00000142864439114297904210000013223669038869500573_">
						<use xlink:href="#SVGID_00000026875860798505905540000005442417380250780328_"  style="overflow:visible;"/>
					</clipPath>
					
						<rect x="31.2" y="0.3" style="clip-path:url(#SVGID_00000142864439114297904210000013223669038869500573_);fill:#2E2E2C;" width="168.6" height="170"/>
				</g>
			</g>
		</g>
	</g>
	<g>
		<g>
			<defs>
				<polygon id="SVGID_00000038392003859142624770000004541141375939517629_" points="73.6,238.3 55.8,238.3 55.8,222 73.3,222 
					73.3,225.6 60.6,225.6 60.6,228.4 72.6,228.4 72.6,231.8 60.6,231.8 60.6,234.6 73.6,234.6 				"/>
			</defs>
			<clipPath id="SVGID_00000118394265811859278400000013836697049567763892_">
				<use xlink:href="#SVGID_00000038392003859142624770000004541141375939517629_"  style="overflow:visible;"/>
			</clipPath>
			<g style="clip-path:url(#SVGID_00000118394265811859278400000013836697049567763892_);">
				<g>
					<defs>
						<rect id="SVGID_00000039840203368113695510000000447315848543488909_" x="-46.8" y="-94.5" width="705.6" height="470.4"/>
					</defs>
					<clipPath id="SVGID_00000024708233090733357750000005694268345744773817_">
						<use xlink:href="#SVGID_00000039840203368113695510000000447315848543488909_"  style="overflow:visible;"/>
					</clipPath>
					
						<rect x="54.6" y="220.9" style="clip-path:url(#SVGID_00000024708233090733357750000005694268345744773817_);fill:#2E2E2C;" width="20.1" height="18.7"/>
				</g>
			</g>
		</g>
	</g>
	<g>
		<g>
			<defs>
				<polygon id="SVGID_00000037662992551823139850000006756495734260823452_" points="97.7,238.3 90.6,238.3 81.1,226.1 81,226.1 
					81,238.3 76.3,238.3 76.3,222 83.6,222 92.9,234.3 93,234.3 93,222 97.7,222 				"/>
			</defs>
			<clipPath id="SVGID_00000008145020196638969800000017852519449869885119_">
				<use xlink:href="#SVGID_00000037662992551823139850000006756495734260823452_"  style="overflow:visible;"/>
			</clipPath>
			<g style="clip-path:url(#SVGID_00000008145020196638969800000017852519449869885119_);">
				<g>
					<defs>
						<rect id="SVGID_00000091719214391145685170000016088700541134391440_" x="-46.8" y="-94.5" width="705.6" height="470.4"/>
					</defs>
					<clipPath id="SVGID_00000017503436642718094110000002500579192404340134_">
						<use xlink:href="#SVGID_00000091719214391145685170000016088700541134391440_"  style="overflow:visible;"/>
					</clipPath>
					
						<rect x="75.1" y="220.9" style="clip-path:url(#SVGID_00000017503436642718094110000002500579192404340134_);fill:#2E2E2C;" width="23.8" height="18.7"/>
				</g>
			</g>
		</g>
	</g>
	<g>
		<g>
			<defs>
				<path id="SVGID_00000039125014253910131240000015980373454457342859_" d="M111.6,238.5c-1.5,0-2.8,0-3.9-0.1s-2-0.2-2.8-0.4
					s-1.4-0.5-1.9-0.9s-0.9-0.9-1.1-1.5c-0.3-0.6-0.4-1.3-0.5-2.2c-0.1-0.8-0.1-1.9-0.1-3V230c0-1.2,0-2.2,0.1-3
					c0.1-0.9,0.3-1.6,0.5-2.2c0.3-0.6,0.6-1.1,1.1-1.4c0.5-0.4,1.1-0.7,1.9-0.9s1.7-0.3,2.8-0.4c1.1-0.1,2.4-0.1,3.9-0.1h0.7
					c1.3,0,2.4,0,3.3,0.1s1.8,0.2,2.4,0.3c0.7,0.1,1.2,0.3,1.7,0.6c0.4,0.2,0.8,0.6,1,0.9c0.3,0.4,0.4,0.8,0.5,1.4
					c0.1,0.5,0.1,1.2,0.1,1.9v0.6h-4.6v-0.2c0-0.4-0.1-0.7-0.2-0.9c-0.1-0.3-0.3-0.5-0.7-0.6c-0.3-0.2-0.8-0.3-1.4-0.3
					c-0.6-0.1-1.4-0.1-2.4-0.1h-0.4c-0.9,0-1.7,0-2.3,0c-0.6,0-1.2,0.1-1.6,0.2c-0.4,0.1-0.8,0.3-1,0.4c-0.2,0.2-0.4,0.5-0.6,0.8
					c-0.1,0.3-0.2,0.7-0.2,1.2s-0.1,1.1-0.1,1.8v0.3c0,0.7,0,1.3,0.1,1.7c0,0.5,0.1,0.9,0.2,1.2s0.3,0.6,0.6,0.8
					c0.2,0.2,0.6,0.3,1,0.4c0.4,0.1,1,0.2,1.6,0.2s1.4,0,2.3,0h0.4c0.7,0,1.4,0,1.9,0s1-0.1,1.3-0.1c0.4-0.1,0.7-0.1,0.9-0.2
					c0.2-0.1,0.4-0.2,0.5-0.4s0.2-0.3,0.2-0.6c0-0.2,0.1-0.5,0.1-0.7v-0.5h-6.2v-3.1h10.8v3.6c0,0.8-0.1,1.5-0.2,2.1
					s-0.3,1.1-0.6,1.5c-0.3,0.4-0.6,0.8-1.1,1.1c-0.4,0.3-1,0.5-1.7,0.7s-1.5,0.3-2.5,0.4c-1,0.1-2.1,0.1-3.4,0.1h-0.4V238.5z"/>
			</defs>
			<clipPath id="SVGID_00000152949633081526516100000010655061024915548593_">
				<use xlink:href="#SVGID_00000039125014253910131240000015980373454457342859_"  style="overflow:visible;"/>
			</clipPath>
			<g style="clip-path:url(#SVGID_00000152949633081526516100000010655061024915548593_);">
				<g>
					<defs>
						<rect id="SVGID_00000016763756166261369150000009971900258579506853_" x="-46.8" y="-94.5" width="705.6" height="470.4"/>
					</defs>
					<clipPath id="SVGID_00000157309741130118382430000005616814984737163967_">
						<use xlink:href="#SVGID_00000016763756166261369150000009971900258579506853_"  style="overflow:visible;"/>
					</clipPath>
					
						<rect x="100.1" y="220.8" style="clip-path:url(#SVGID_00000157309741130118382430000005616814984737163967_);fill:#2E2E2C;" width="22.8" height="18.9"/>
				</g>
			</g>
		</g>
	</g>
	<g>
		<g>
			<defs>
				<rect id="SVGID_00000126298029431174223320000001987574514366890637_" x="1.8" y="184.5" width="227.7" height="54.1"/>
			</defs>
			<clipPath id="SVGID_00000099656517308937655240000002739335668505398407_">
				<use xlink:href="#SVGID_00000126298029431174223320000001987574514366890637_"  style="overflow:visible;"/>
			</clipPath>
			<g style="clip-path:url(#SVGID_00000099656517308937655240000002739335668505398407_);">
				<g>
					<defs>
						<rect id="SVGID_00000067203284800007433870000013642693043397250439_" x="-46.8" y="-94.5" width="705.6" height="470.4"/>
					</defs>
					<clipPath id="SVGID_00000109011653110793456860000012705668787464828808_">
						<use xlink:href="#SVGID_00000067203284800007433870000013642693043397250439_"  style="overflow:visible;"/>
					</clipPath>
					<g style="clip-path:url(#SVGID_00000109011653110793456860000012705668787464828808_);enable-background:new    ;">
						<g>
							<g>
								<defs>
									<rect id="SVGID_00000140696696927424405550000000524712865785610672_" x="133.3" y="222.1" width="42.8" height="16.5"/>
								</defs>
								<clipPath id="SVGID_00000025433892020395930950000014035706299497261732_">
									<use xlink:href="#SVGID_00000140696696927424405550000000524712865785610672_"  style="overflow:visible;"/>
								</clipPath>
								<g style="clip-path:url(#SVGID_00000025433892020395930950000014035706299497261732_);">
									<g>
										<defs>
											<polygon id="SVGID_00000181055144103789970460000000658607960410745764_" points="154.6,238.3 147.5,238.3 138.1,226.2 
												138,226.2 138,238.3 133.4,238.3 133.4,222.2 140.6,222.2 149.9,234.3 150,234.3 150,222.2 154.6,222.2 											"/>
										</defs>
										<clipPath id="SVGID_00000090258785248606916390000011266636692522579626_">
											<use xlink:href="#SVGID_00000181055144103789970460000000658607960410745764_"  style="overflow:visible;"/>
										</clipPath>
										<g style="clip-path:url(#SVGID_00000090258785248606916390000011266636692522579626_);">
											<g>
												<defs>
													
														<rect id="SVGID_00000101079251142571155640000009990534436219491003_" x="1.8" y="184.4" width="227.7" height="54.1"/>
												</defs>
												<clipPath id="SVGID_00000009551585925352065290000016664145036540359615_">
													<use xlink:href="#SVGID_00000101079251142571155640000009990534436219491003_"  style="overflow:visible;"/>
												</clipPath>
												
													<rect x="132.2" y="221" style="clip-path:url(#SVGID_00000009551585925352065290000016664145036540359615_);fill:#2E2E2C;" width="23.6" height="18.5"/>
											</g>
										</g>
									</g>
								</g>
							</g>
							<g>
								<defs>
									<rect id="SVGID_00000135662052215088837610000003376509938849766578_" x="133.3" y="222.1" width="42.8" height="16.5"/>
								</defs>
								<clipPath id="SVGID_00000084512081497850409520000014355230279147669635_">
									<use xlink:href="#SVGID_00000135662052215088837610000003376509938849766578_"  style="overflow:visible;"/>
								</clipPath>
								<g style="clip-path:url(#SVGID_00000084512081497850409520000014355230279147669635_);">
									<g>
										<defs>
											<polygon id="SVGID_00000036947952946938253270000010827000173337457026_" points="176,238.3 158.4,238.3 158.4,222.2 
												175.7,222.2 175.7,225.7 163.1,225.7 163.1,228.5 175.1,228.5 175.1,231.9 163.1,231.9 163.1,234.7 176,234.7 
																							"/>
										</defs>
										<clipPath id="SVGID_00000120525675684497083590000011774939413237109417_">
											<use xlink:href="#SVGID_00000036947952946938253270000010827000173337457026_"  style="overflow:visible;"/>
										</clipPath>
										<g style="clip-path:url(#SVGID_00000120525675684497083590000011774939413237109417_);">
											<g>
												<defs>
													
														<rect id="SVGID_00000152235134281550849260000003309802034749274014_" x="1.8" y="184.4" width="227.7" height="54.1"/>
												</defs>
												<clipPath id="SVGID_00000072984647702589243670000010942537632246357678_">
													<use xlink:href="#SVGID_00000152235134281550849260000003309802034749274014_"  style="overflow:visible;"/>
												</clipPath>
												
													<rect x="157.2" y="221" style="clip-path:url(#SVGID_00000072984647702589243670000010942537632246357678_);fill:#2E2E2C;" width="20" height="18.5"/>
											</g>
										</g>
									</g>
								</g>
							</g>
						</g>
					</g>
				</g>
			</g>
		</g>
	</g>
	<g>
		<g>
			<defs>
				<path id="SVGID_00000023991683836502931670000007183729694316517248_" d="M18.9,213.3c-2.3,0-4.3-0.1-6.1-0.2
					c-1.7-0.1-3.2-0.3-4.5-0.6s-2.3-0.7-3.1-1.2s-1.5-1.2-2-1.9c-0.5-0.8-0.8-1.7-1-2.8s-0.3-2.3-0.3-3.7v-18.4h8.4v15.7
					c0,1,0,1.8,0.1,2.5s0.2,1.3,0.4,1.8s0.5,0.9,0.9,1.2s0.9,0.5,1.6,0.7c0.6,0.2,1.4,0.3,2.4,0.3c0.9,0.1,2.1,0.1,3.4,0.1h0.7
					c1.3,0,2.4,0,3.4-0.1c0.9-0.1,1.7-0.2,2.4-0.3c0.6-0.2,1.2-0.4,1.6-0.7s0.7-0.7,0.9-1.2c0.2-0.5,0.3-1.1,0.4-1.8
					s0.1-1.5,0.1-2.5v-15.7H37v18.4c0,1.4-0.1,2.6-0.3,3.7c-0.2,1.1-0.5,2-1,2.8s-1.1,1.4-2,1.9c-0.8,0.5-1.9,0.9-3.1,1.2
					c-1.3,0.3-2.8,0.5-4.5,0.6c-1.8,0.1-3.8,0.2-6.1,0.2H18.9z"/>
			</defs>
			<clipPath id="SVGID_00000010300051725095303320000008932420055390236054_">
				<use xlink:href="#SVGID_00000023991683836502931670000007183729694316517248_"  style="overflow:visible;"/>
			</clipPath>
			<g style="clip-path:url(#SVGID_00000010300051725095303320000008932420055390236054_);">
				<g>
					<defs>
						<rect id="SVGID_00000150799307081453429320000011236098797731766406_" x="-46.8" y="-94.5" width="705.6" height="470.4"/>
					</defs>
					<clipPath id="SVGID_00000099640626376906972960000008834309317063785623_">
						<use xlink:href="#SVGID_00000150799307081453429320000011236098797731766406_"  style="overflow:visible;"/>
					</clipPath>
					
						<rect x="0.7" y="183.3" style="clip-path:url(#SVGID_00000099640626376906972960000008834309317063785623_);fill:#2E2E2C;" width="37.4" height="31.2"/>
				</g>
			</g>
		</g>
	</g>
	<g>
		<g>
			<defs>
				<polygon id="SVGID_00000112607409659527389540000014381554573354557061_" points="80,213 67.5,213 51,191.7 50.8,191.7 
					50.8,213 42.6,213 42.6,184.5 55.3,184.5 71.7,205.8 71.8,205.8 71.8,184.5 80,184.5 				"/>
			</defs>
			<clipPath id="SVGID_00000121268816316112050100000008131934925586407838_">
				<use xlink:href="#SVGID_00000112607409659527389540000014381554573354557061_"  style="overflow:visible;"/>
			</clipPath>
			<g style="clip-path:url(#SVGID_00000121268816316112050100000008131934925586407838_);">
				<g>
					<defs>
						<rect id="SVGID_00000078007712893822036070000010555622989254012081_" x="-46.8" y="-94.5" width="705.6" height="470.4"/>
					</defs>
					<clipPath id="SVGID_00000049191953995220450220000006880994605152285355_">
						<use xlink:href="#SVGID_00000078007712893822036070000010555622989254012081_"  style="overflow:visible;"/>
					</clipPath>
					
						<rect x="41.4" y="183.3" style="clip-path:url(#SVGID_00000049191953995220450220000006880994605152285355_);fill:#2E2E2C;" width="39.8" height="30.9"/>
				</g>
			</g>
		</g>
	</g>
	<g>
		<g>
			<defs>
				<path id="SVGID_00000036967983815188370590000000906719929623256220_" d="M119.6,213h-8.3v-2.3c0-0.8,0-1.5-0.1-2.2
					c-0.1-0.6-0.2-1.1-0.4-1.5c-0.2-0.4-0.5-0.8-0.9-1c-0.4-0.3-0.9-0.4-1.6-0.6c-0.6-0.1-1.4-0.2-2.4-0.3c-0.9,0-2.1-0.1-3.4-0.1
					h-8.4v7.9h-8.3v-28.5H108c2.3,0,4.2,0.1,5.7,0.4c1.5,0.3,2.7,0.8,3.5,1.4c0.9,0.7,1.5,1.6,1.8,2.7c0.3,1.1,0.5,2.5,0.5,4.1v1
					c0,1.1-0.1,2.1-0.3,2.9c-0.2,0.8-0.5,1.6-0.9,2.2c-0.4,0.6-0.9,1.1-1.5,1.5s-1.4,0.7-2.3,0.9v0.2c1,0.2,1.8,0.4,2.5,0.6
					c0.6,0.3,1.1,0.6,1.5,1.1s0.6,1.2,0.7,2s0.2,1.8,0.2,3.1v4.5H119.6z M104.6,198.9c1.4,0,2.6,0,3.5-0.1s1.5-0.3,2-0.6
					c0.4-0.3,0.7-0.7,0.9-1.2c0.1-0.5,0.2-1.2,0.2-2v-0.5c0-0.8-0.1-1.5-0.2-2s-0.4-0.9-0.9-1.1c-0.5-0.3-1.1-0.4-2-0.5
					s-2-0.1-3.4-0.1H94.2v8.1L104.6,198.9L104.6,198.9z"/>
			</defs>
			<clipPath id="SVGID_00000141443574563261304790000001636571197594554543_">
				<use xlink:href="#SVGID_00000036967983815188370590000000906719929623256220_"  style="overflow:visible;"/>
			</clipPath>
			<g style="clip-path:url(#SVGID_00000141443574563261304790000001636571197594554543_);">
				<g>
					<defs>
						<rect id="SVGID_00000109025696836097438250000008256242115604264126_" x="-46.8" y="-94.5" width="705.6" height="470.4"/>
					</defs>
					<clipPath id="SVGID_00000168083294623175425590000008791939312216063880_">
						<use xlink:href="#SVGID_00000109025696836097438250000008256242115604264126_"  style="overflow:visible;"/>
					</clipPath>
					
						<rect x="84.7" y="183.3" style="clip-path:url(#SVGID_00000168083294623175425590000008791939312216063880_);fill:#2E2E2C;" width="36.1" height="30.9"/>
				</g>
			</g>
		</g>
	</g>
	<g>
		<g>
			<defs>
				<polygon id="SVGID_00000065764857650504688570000004448302486373484168_" points="156.1,213 125,213 125,184.5 155.6,184.5 
					155.6,190.8 133.4,190.8 133.4,195.6 154.4,195.6 154.4,201.6 133.4,201.6 133.4,206.5 156.1,206.5 				"/>
			</defs>
			<clipPath id="SVGID_00000105413728713543068240000002175957992230675378_">
				<use xlink:href="#SVGID_00000065764857650504688570000004448302486373484168_"  style="overflow:visible;"/>
			</clipPath>
			<g style="clip-path:url(#SVGID_00000105413728713543068240000002175957992230675378_);">
				<g>
					<defs>
						<rect id="SVGID_00000178914448808749395330000001868139479949475473_" x="-46.8" y="-94.5" width="705.6" height="470.4"/>
					</defs>
					<clipPath id="SVGID_00000159428546250311849330000012536002648662026368_">
						<use xlink:href="#SVGID_00000178914448808749395330000001868139479949475473_"  style="overflow:visible;"/>
					</clipPath>
					
						<rect x="123.9" y="183.3" style="clip-path:url(#SVGID_00000159428546250311849330000012536002648662026368_);fill:#2E2E2C;" width="33.4" height="30.9"/>
				</g>
			</g>
		</g>
	</g>
	<g>
		<g>
			<defs>
				<path id="SVGID_00000180349364017617680590000001568094889852290741_" d="M198.9,213h-9.1l-2.6-5.1h-17.8l-2.6,5.1h-9l15.3-28.5
					h10.3L198.9,213z M184.2,201.9l-5.8-11.5h-0.2l-5.8,11.5H184.2z"/>
			</defs>
			<clipPath id="SVGID_00000168107313493928154400000000772229269559786431_">
				<use xlink:href="#SVGID_00000180349364017617680590000001568094889852290741_"  style="overflow:visible;"/>
			</clipPath>
			<g style="clip-path:url(#SVGID_00000168107313493928154400000000772229269559786431_);">
				<g>
					<defs>
						<rect id="SVGID_00000083803994934501004900000008618656072994590630_" x="-46.8" y="-94.5" width="705.6" height="470.4"/>
					</defs>
					<clipPath id="SVGID_00000018209557245563414070000015045278612941164171_">
						<use xlink:href="#SVGID_00000083803994934501004900000008618656072994590630_"  style="overflow:visible;"/>
					</clipPath>
					
						<rect x="156.7" y="183.3" style="clip-path:url(#SVGID_00000018209557245563414070000015045278612941164171_);fill:#2E2E2C;" width="43.4" height="30.9"/>
				</g>
			</g>
		</g>
	</g>
	<g>
		<g>
			<defs>
				<polygon id="SVGID_00000041982130904413370450000000492080928189034926_" points="229.5,213 202,213 202,184.5 210.4,184.5 
					210.4,206.4 229.5,206.4 				"/>
			</defs>
			<clipPath id="SVGID_00000142154513191149188930000002694219083745468556_">
				<use xlink:href="#SVGID_00000041982130904413370450000000492080928189034926_"  style="overflow:visible;"/>
			</clipPath>
			<g style="clip-path:url(#SVGID_00000142154513191149188930000002694219083745468556_);">
				<g>
					<defs>
						<rect id="SVGID_00000129165991872184830030000002306957374115384501_" x="-46.8" y="-94.5" width="705.6" height="470.4"/>
					</defs>
					<clipPath id="SVGID_00000165927288753966385750000015790159575837263807_">
						<use xlink:href="#SVGID_00000129165991872184830030000002306957374115384501_"  style="overflow:visible;"/>
					</clipPath>
					
						<rect x="200.8" y="183.3" style="clip-path:url(#SVGID_00000165927288753966385750000015790159575837263807_);fill:#2E2E2C;" width="29.8" height="30.9"/>
				</g>
			</g>
		</g>
	</g>
	<g>
		<g>
			<defs>
				<rect id="SVGID_00000073713690773623877270000003664199690867389847_" x="125" y="222.2" width="4.8" height="16.2"/>
			</defs>
			<clipPath id="SVGID_00000080200766693835954950000006962616349639873181_">
				<use xlink:href="#SVGID_00000073713690773623877270000003664199690867389847_"  style="overflow:visible;"/>
			</clipPath>
			<g style="clip-path:url(#SVGID_00000080200766693835954950000006962616349639873181_);">
				<g>
					<defs>
						<rect id="SVGID_00000083767611619061303200000003905560270900119183_" x="-46.8" y="-94.5" width="705.6" height="470.4"/>
					</defs>
					<clipPath id="SVGID_00000083061994263026346130000017753873477206663580_">
						<use xlink:href="#SVGID_00000083767611619061303200000003905560270900119183_"  style="overflow:visible;"/>
					</clipPath>
					
						<rect x="123.8" y="221" style="clip-path:url(#SVGID_00000083061994263026346130000017753873477206663580_);fill:#2E2E2C;" width="7.1" height="18.5"/>
				</g>
			</g>
		</g>
	</g>
</g>
</svg>
